# xmcd
#
# Track frame offsets: 
#        150
#        26063
#        65854
#        87178
#        109888
#        142842
#        174048
#        203745
#        226952
#        251497
#
# Disc length: 3615 seconds
#
# Revision: 0
# Processed by: cddbd v1.5.2PL0 Copyright (c) Steve Scherf et al.
# Submitted via: ExactAudioCopy v1.0b3
#
DISCID=7f0e1d0a
DTITLE=Quang Binh, Trang Thanh Lan - Mai Me Gac Cu
DYEAR=1996
DGENRE=
TTITLE0=Gac cu
TTITLE1=Trang Thanh Lan - Con nghe thuong tham
TTITLE2=Giang cau 2
TTITLE3=Quang Binh - Theo em ve que huong
TTITLE4=Tinh ngan doi bo
TTITLE5=Vi dau qua cau dap xe
TTITLE6=Trang Thanh Lan - Em o que ra
TTITLE7=Dem cam cau
TTITLE8=Quang Binh - Tinh duyen oi tinh duyen
TTITLE9=Hat giong
EXTD=
EXTT0=
EXTT1=
EXTT2=
EXTT3=
EXTT4=
EXTT5=
EXTT6=
EXTT7=
EXTT8=
EXTT9=
PLAYORDER=
